<?xml version="1.0" encoding="UTF-8" standalone="no"?>
<svg height="50" viewBox="0 0 50 50" width="50" version="1.1"
  xmlns="http://www.w3.org/2000/svg"
  xmlns:svg="http://www.w3.org/2000/svg">
  <path d="m 42.941974,27.387759 c 0.0958,-0.766427 0.167656,-1.54483 0.167656,-2.335208 0,-0.790378 -0.07185,-1.568781 -0.167656,-2.335209 l 5.065606,-3.963866 c 0.455066,-0.359263 0.586796,-1.005936 0.28741,-1.532855 L 43.504819,8.92165 C 43.205433,8.4067066 42.582711,8.1911489 42.043817,8.4067066 L 36.080053,10.813767 C 34.846584,9.8677089 33.493361,9.0653552 32.032359,8.4546083 L 31.134202,2.1076314 C 31.026423,1.5447863 30.53543,1.1016954 29.936659,1.1016954 h -9.580343 c -0.598771,0 -1.089764,0.4430909 -1.185567,1.005936 L 18.272592,8.4546083 C 16.811589,9.0653552 15.458366,9.8557334 14.224897,10.813767 L 8.2611328,8.4067066 c -0.5388943,-0.2035823 -1.1616165,0 -1.4610022,0.5149434 l -4.7901713,8.298971 c -0.2993857,0.514943 -0.167656,1.161616 0.2874103,1.532855 l 5.0536307,3.963866 c -0.095803,0.766428 -0.167656,1.544831 -0.167656,2.335209 0,0.790378 0.071853,1.568781 0.167656,2.335208 l -5.0536307,3.963867 c -0.4550663,0.359263 -0.586796,1.005936 -0.2874103,1.532855 l 4.7901713,8.298972 c 0.2993857,0.514943 0.9221079,0.730501 1.4610022,0.514943 l 5.9637642,-2.407061 c 1.233469,0.946059 2.586692,1.748412 4.047695,2.359159 l 0.898157,6.346977 c 0.0958,0.562845 0.586796,1.005936 1.185567,1.005936 h 9.580343 c 0.598771,0 1.089764,-0.443091 1.185567,-1.005936 l 0.898157,-6.346977 c 1.461002,-0.610747 2.814226,-1.401125 4.047695,-2.359159 l 5.963763,2.407061 c 0.538894,0.203582 1.161617,0 1.461002,-0.514943 l 4.790172,-8.298972 c 0.299385,-0.514944 0.167656,-1.161617 -0.287411,-1.532855 z m -17.795487,6.047592 c -4.63449,0 -8.382799,-3.74831 -8.382799,-8.3828 0,-4.634491 3.748309,-8.3828 8.382799,-8.3828 4.634491,0 8.3828,3.748309 8.3828,8.3828 0,4.63449 -3.748309,8.3828 -8.3828,8.3828 z" id="path25556" style="stroke-linecap:round" />
</svg>
